<svg width="22" height="22" viewBox="0 0 22 22" fill="none" xmlns="http://www.w3.org/2000/svg">
<path d="M21 15.92V18.92C21.0011 19.1985 20.9441 19.4742 20.8325 19.7294C20.7209 19.9846 20.5573 20.2136 20.3521 20.4019C20.1469 20.5902 19.9046 20.7335 19.6407 20.8227C19.3769 20.912 19.0974 20.9451 18.82 20.92C15.7428 20.5857 12.787 19.5342 10.19 17.85C7.77383 16.3147 5.72534 14.2662 4.19 11.85C2.49998 9.24124 1.44824 6.27103 1.12 3.18004C1.09501 2.9035 1.12787 2.6248 1.2165 2.36166C1.30512 2.09852 1.44757 1.85673 1.63476 1.65166C1.82196 1.44659 2.0498 1.28275 2.30379 1.17056C2.55778 1.05837 2.83234 1.0003 3.11 1.00004H6.11C6.59531 0.995259 7.06579 1.16711 7.43376 1.48357C7.80173 1.80002 8.04208 2.23948 8.11 2.72004C8.23662 3.6801 8.47145 4.62276 8.81 5.53004C8.94454 5.88796 8.97366 6.27695 8.89391 6.65092C8.81415 7.02488 8.62886 7.36815 8.36 7.64004L7.09 8.91004C8.51355 11.4136 10.5865 13.4865 13.09 14.91L14.36 13.64C14.6319 13.3712 14.9752 13.1859 15.3491 13.1061C15.7231 13.0264 16.1121 13.0555 16.47 13.19C17.3773 13.5286 18.3199 13.7634 19.28 13.89C19.7658 13.9586 20.2094 14.2032 20.5265 14.5775C20.8437 14.9518 21.0122 15.4296 21 15.92Z" stroke="#69B99D" stroke-width="2" stroke-linecap="round" stroke-linejoin="round"/>
</svg>
